# xmcd
#
# Track frame offsets: 
#        150
#        17342
#        41462
#        71722
#        96372
#        128600
#        146657
#        166250
#        180477
#        204025
#        245505
#        267362
#        291580
#
# Disc length: 4244 seconds
#
# Revision: 17
# Processed by: cddbd v1.5.2PL0 Copyright (c) Steve Scherf et al.
# Submitted via: ExactAudioCopy v1.1
#
DISCID=b510920d
DTITLE=Various Artist - Fresh Blues - The Inak Blues-Connection
DYEAR=1993
DGENRE=Blues
TTITLE0=Blues Company - I've Got The Blues
TTITLE1=Joanna Connor Band - Texas
TTITLE2=Stan Webb's Chicken Shack - Broken Hearted Melody
TTITLE3=Luther Allison - Good Morning Love
TTITLE4=Cadillac Blues Band - Remembering Love
TTITLE5=Blues Company - Red Blood
TTITLE6=Bernard Allison - Going Down
TTITLE7=Electric Blues Duo - Roberta (Live)
TTITLE8=Dave Kelly Band - It Hurts Me Too
TTITLE9=Joanna Connor Band - Sky Is Crying (Live)
TTITLE10=Farlow, Davis, York, Hodgkinson, Money, Anderson - The Thrill
TTITLE10=Is Gone (Live)
TTITLE11=Stan Webb's Chicken Shack - Don't You Worry About A Thing
TTITLE12=Blues Company - Silent Nite
EXTD=YEAR: 1993
EXTT0=
EXTT1=
EXTT2=
EXTT3=
EXTT4=
EXTT5=
EXTT6=
EXTT7=
EXTT8=
EXTT9=
EXTT10=
EXTT11=
EXTT12=
PLAYORDER=
